<svg width="120" height="62" viewBox="0 0 120 62" fill="none" xmlns="http://www.w3.org/2000/svg">
<g clip-path="url(#clip0_7_3511)">
<path d="M50.8976 33.0341C50.8976 33.0341 37.9985 2.08543 37.9944 2.08133C37.6687 1.38621 37.1333 0.813313 36.4652 0.444946C35.797 0.0765797 35.0305 -0.0682939 34.2758 0.031141C33.521 0.130576 32.8169 0.469201 32.2645 0.998362C31.7122 1.52752 31.3401 2.21998 31.2016 2.97625L27.5005 21.6341L5.78536 20.9363C4.83909 20.9484 3.90985 21.1922 3.07723 21.6466C2.24461 22.1011 1.53343 22.7528 1.00463 23.5458C0.475833 24.3388 0.145169 25.2495 0.0409692 26.1999C-0.0632307 27.1504 0.0621398 28.1121 0.40634 29.0029L13.2932 59.9351C13.6142 60.6172 14.1372 61.1816 14.7896 61.55C15.4421 61.9185 16.1918 62.0728 16.935 61.9916C17.6781 61.9105 18.3779 61.5978 18.9374 61.0969C19.4968 60.5961 19.8883 59.9318 20.0576 59.1962C20.0576 59.1428 23.7872 40.3905 23.7912 40.3741L27.5005 21.6505L30.9863 40.5999L45.5023 41.0761C47.014 41.0663 48.4631 40.4652 49.5455 39.3989C50.628 38.3327 51.2596 36.8843 51.3079 35.3576C51.3289 34.563 51.1893 33.7724 50.8976 33.0341Z" fill="#47A432"/>
<path d="M50.8976 33.0341C50.8976 33.0341 37.9985 2.08543 37.9944 2.08133C37.6687 1.38621 37.1333 0.813313 36.4652 0.444946C35.797 0.0765797 35.0305 -0.0682939 34.2758 0.031141C33.521 0.130576 32.8169 0.469201 32.2645 0.998362C31.7122 1.52752 31.3401 2.21998 31.2016 2.97625L27.5005 21.6341L5.78536 20.9363C4.83909 20.9484 3.90985 21.1922 3.07723 21.6466C2.24461 22.1011 1.53343 22.7528 1.00463 23.5458C0.475833 24.3388 0.145169 25.2495 0.0409692 26.1999C-0.0632307 27.1504 0.0621398 28.1121 0.40634 29.0029L13.2932 59.9351C13.6142 60.6172 14.1372 61.1816 14.7896 61.55C15.4421 61.9185 16.1918 62.0728 16.935 61.9916C17.6781 61.9105 18.3779 61.5978 18.9374 61.0969C19.4968 60.5961 19.8883 59.9318 20.0576 59.1962C20.0576 59.1428 23.7872 40.3905 23.7912 40.3741L27.5005 21.6505L30.9863 40.5999L45.5023 41.0761C47.014 41.0663 48.4631 40.4652 49.5455 39.3989C50.628 38.3327 51.2596 36.8843 51.3079 35.3576C51.3289 34.563 51.1893 33.7724 50.8976 33.0341Z" fill="#47A432"/>
<path d="M23.791 40.3618L30.9861 40.5999L27.5003 21.6382L23.791 40.3618Z" fill="#297016"/>
<path d="M65.8928 27.2992L68.2654 15.3491H64.6293L62.2608 27.2992L61.5498 30.8953V30.8994H65.1819H71.4262L73.1488 27.2992H65.8928Z" fill="white"/>
<path d="M101.45 15.3491L99.5973 24.6924L95.6037 15.3573V15.3491H91.9716L89.6031 27.2992L88.8921 30.8953V30.8994H92.5241L93.2392 27.2992L94.3767 21.5561L97.3994 28.6293L98.3663 30.8912V30.8953V30.8994H98.3704H100.41H101.998L102.709 27.2992L105.078 15.3491H101.45Z" fill="white"/>
<path d="M116.368 15.3491L114.519 24.6924L110.526 15.3573V15.3491H106.893L104.525 27.2992L103.814 30.8953V30.8994H107.446L108.157 27.2992L109.299 21.5561L112.321 28.6293L113.288 30.8912V30.8953V30.8994H113.292H115.332H116.92L117.631 27.2992L120.004 15.3491H116.368Z" fill="white"/>
<path d="M84.4593 15.7514L84.3618 15.3491H80.6932L73.23 30.8994H77.1871L82.0257 20.8213L84.4755 30.8994H87.0757L87.5551 28.4774L84.4593 15.7514Z" fill="white"/>
<path d="M70.7167 35.0201L69.3167 42.0201H68.3567L69.3767 36.9601L66.0667 41.1701H65.6067L63.8567 36.8601L62.8267 42.0201H61.8667L63.2667 35.0201H64.0767L66.0267 39.9501L69.8567 35.0201H70.7167ZM77.3275 36.7201L76.2775 42.0201H75.3575L75.4875 41.3701C75.2475 41.5968 74.9675 41.7735 74.6475 41.9001C74.3341 42.0201 73.9908 42.0801 73.6175 42.0801C73.1641 42.0801 72.7608 41.9901 72.4075 41.8101C72.0541 41.6235 71.7775 41.3568 71.5775 41.0101C71.3775 40.6635 71.2775 40.2568 71.2775 39.7901C71.2775 39.1901 71.4075 38.6535 71.6675 38.1801C71.9275 37.7068 72.2841 37.3368 72.7375 37.0701C73.1975 36.8035 73.7108 36.6701 74.2775 36.6701C74.7308 36.6701 75.1175 36.7501 75.4375 36.9101C75.7641 37.0701 76.0141 37.3068 76.1875 37.6201L76.3675 36.7201H77.3275ZM73.8275 41.2401C74.2208 41.2401 74.5741 41.1468 74.8875 40.9601C75.2075 40.7668 75.4541 40.5001 75.6275 40.1601C75.8075 39.8201 75.8975 39.4335 75.8975 39.0001C75.8975 38.5268 75.7608 38.1601 75.4875 37.9001C75.2141 37.6401 74.8241 37.5101 74.3175 37.5101C73.9241 37.5101 73.5708 37.6068 73.2575 37.8001C72.9441 37.9868 72.6975 38.2501 72.5175 38.5901C72.3375 38.9301 72.2475 39.3168 72.2475 39.7501C72.2475 40.2168 72.3841 40.5835 72.6575 40.8501C72.9375 41.1101 73.3275 41.2401 73.8275 41.2401ZM79.9239 37.5101C80.1572 37.2168 80.4439 37.0035 80.7839 36.8701C81.1239 36.7368 81.5372 36.6701 82.0239 36.6701L81.8439 37.6001C81.7839 37.5935 81.7005 37.5901 81.5939 37.5901C80.4939 37.5901 79.8272 38.1835 79.5939 39.3701L79.0639 42.0201H78.1039L79.1539 36.7201H80.0739L79.9239 37.5101ZM85.4471 38.9501L87.3371 42.0201H86.2271L84.6971 39.5201L83.3971 40.5301L83.0971 42.0201H82.1371L83.6171 34.6001H84.5771L83.6371 39.3201L86.9271 36.7201H88.2771L85.4471 38.9501ZM88.9069 39.6701V39.7301C88.9069 40.2235 89.0469 40.6001 89.3269 40.8601C89.6069 41.1135 90.0269 41.2401 90.5869 41.2401C90.9136 41.2401 91.2202 41.1868 91.5069 41.0801C91.7936 40.9668 92.0336 40.8168 92.2269 40.6301L92.6369 41.3201C92.3769 41.5601 92.0602 41.7468 91.6869 41.8801C91.3136 42.0135 90.9202 42.0801 90.5069 42.0801C89.9869 42.0801 89.5369 41.9868 89.1569 41.8001C88.7769 41.6135 88.4836 41.3468 88.2769 41.0001C88.0702 40.6535 87.9669 40.2468 87.9669 39.7801C87.9669 39.1868 88.0936 38.6535 88.3469 38.1801C88.6069 37.7068 88.9636 37.3368 89.4169 37.0701C89.8769 36.8035 90.3902 36.6701 90.9569 36.6701C91.6769 36.6701 92.2502 36.8768 92.6769 37.2901C93.1102 37.6968 93.3269 38.2535 93.3269 38.9601C93.3269 39.1735 93.3036 39.4101 93.2569 39.6701H88.9069ZM90.9169 37.4701C90.4436 37.4701 90.0369 37.6035 89.6969 37.8701C89.3569 38.1368 89.1269 38.5035 89.0069 38.9701H92.4269C92.4536 38.4968 92.3269 38.1301 92.0469 37.8701C91.7736 37.6035 91.3969 37.4701 90.9169 37.4701ZM95.5102 40.3301C95.4902 40.4301 95.4802 40.5235 95.4802 40.6101C95.4802 40.8235 95.5369 40.9868 95.6502 41.1001C95.7702 41.2135 95.9469 41.2701 96.1802 41.2701C96.4602 41.2701 96.7135 41.1868 96.9402 41.0201L97.1402 41.7501C96.8202 41.9701 96.4102 42.0801 95.9102 42.0801C95.4902 42.0801 95.1502 41.9635 94.8902 41.7301C94.6369 41.4901 94.5102 41.1635 94.5102 40.7501C94.5102 40.6101 94.5235 40.4768 94.5502 40.3501L95.1202 37.5101H94.2202L94.3702 36.7201H95.2802L95.5102 35.5601H96.4702L96.2402 36.7201H97.7602L97.6002 37.5101H96.0802L95.5102 40.3301Z" fill="white"/>
</g>
<defs>
<clipPath id="clip0_7_3511">
<rect width="120" height="62" fill="white"/>
</clipPath>
</defs>
</svg>
